<?xml version="1.0" standalone="no"?>
<!DOCTYPE svg PUBLIC "-//W3C//DTD SVG 20010904//EN"
 "http://www.w3.org/TR/2001/REC-SVG-20010904/DTD/svg10.dtd">
<svg version="1.0" xmlns="http://www.w3.org/2000/svg"
 width="500.000000pt" height="500.000000pt" viewBox="0 0 500.000000 500.000000"
 preserveAspectRatio="xMidYMid meet">

<g transform="translate(0.000000,500.000000) scale(0.100000,-0.100000)"
fill="#000000" stroke="none">
<path d="M2483 4353 c9 -2 23 -2 30 0 6 3 -1 5 -18 5 -16 0 -22 -2 -12 -5z"/>
<path d="M2381 4223 l-1 -92 28 -4 27 -4 -27 -2 -28 -1 -2 -167 c-1 -116 -3
-146 -7 -98 l-6 70 -7 -70 c-5 -38 -8 -149 -8 -245 l0 -176 65 -32 c36 -18 74
-32 85 -32 11 0 49 14 85 32 l65 32 -2 221 c0 128 -4 199 -8 170 l-7 -50 -2
50 c-7 218 -13 352 -17 363 -2 7 -14 11 -29 8 -17 -3 -25 0 -25 9 0 11 -8 13
-32 8 -31 -6 -32 -5 -18 11 13 16 12 18 -10 16 -48 -4 -60 0 -60 19 0 11 -4
23 -10 26 -5 3 -10 -1 -10 -9 0 -9 -5 -16 -11 -16 -5 0 -7 5 -4 10 3 6 2 10
-4 10 -5 0 -12 8 -14 18 -3 9 -5 -24 -6 -75z m43 -15 c-3 -4 -12 -8 -20 -8 -8
0 -14 4 -14 8 0 4 9 8 19 8 11 0 17 -4 15 -8z m116 -22 c0 -2 -7 -6 -15 -10
-8 -3 -15 -1 -15 4 0 6 7 10 15 10 8 0 15 -2 15 -4z m70 -5 c0 -14 -26 -20
-41 -9 -11 8 -10 9 4 4 9 -3 17 -1 17 4 0 6 5 10 10 10 6 0 10 -4 10 -9z
m-175 -11 c3 -6 -1 -7 -9 -4 -18 7 -21 14 -7 14 6 0 13 -4 16 -10z m40 0 c3
-6 -1 -7 -9 -4 -18 7 -21 14 -7 14 6 0 13 -4 16 -10z m55 -25 c-7 -9 -15 -13
-19 -10 -3 3 1 10 9 15 21 14 24 12 10 -5z m34 -40 c-18 -27 -74 -62 -74 -46
0 5 9 12 20 16 11 3 29 20 41 36 26 37 38 31 13 -6z m-44 12 c0 -2 -10 -12
-22 -23 l-23 -19 19 23 c18 21 26 27 26 19z"/>
<path d="M1114 4160 c4 -80 8 -181 10 -225 2 -44 2 -61 -1 -37 -2 24 -8 40
-14 37 -5 -4 -7 -10 -5 -13 2 -4 9 -91 16 -192 11 -194 48 -617 55 -637 2 -6
81 -73 175 -148 167 -133 215 -172 252 -207 16 -16 18 -37 18 -202 0 -141 3
-188 13 -198 8 -7 58 -54 113 -104 54 -50 122 -112 149 -137 28 -26 53 -47 56
-47 7 0 1 510 -7 557 -3 18 -8 32 -12 30 -12 -4 -112 65 -107 73 3 5 0 12 -6
16 -8 4 -9 3 -5 -4 13 -21 -8 -12 -44 19 -19 17 -29 27 -21 23 9 -5 12 -3 7 5
-4 6 -12 9 -17 5 -10 -6 -27 5 -168 114 -72 56 -82 67 -68 77 15 11 15 32 6
214 -6 111 -8 205 -5 208 3 4 14 -1 23 -9 10 -8 56 -33 103 -55 47 -22 121
-57 164 -78 44 -21 150 -71 235 -112 262 -126 363 -174 418 -199 l53 -23 58
25 c31 14 152 72 267 129 116 56 242 117 280 135 39 18 139 66 224 106 84 41
158 74 163 74 6 0 8 -17 4 -42 -3 -24 -8 -118 -12 -210 -6 -154 -5 -168 10
-168 10 0 15 -4 11 -9 -9 -16 -396 -303 -401 -299 -2 3 52 46 121 97 69 51
131 98 138 104 6 7 31 25 55 41 23 16 40 31 38 34 -6 5 -32 -13 -173 -119
-141 -106 -194 -150 -189 -158 3 -4 1 -13 -5 -21 -6 -10 -9 -11 -9 -2 0 26
-19 10 -24 -20 -10 -66 -16 -560 -7 -556 6 2 82 70 170 152 l161 150 0 182 0
182 84 74 c46 40 144 123 219 183 152 124 135 92 157 293 12 109 40 500 39
542 0 23 -1 23 -9 5 -8 -20 -9 -19 -9 1 -1 12 5 27 13 33 19 16 27 66 16 93
-7 19 -9 15 -9 -24 -1 -26 -5 -49 -10 -53 -6 -3 -8 8 -5 27 7 58 24 312 24
364 l-1 49 -34 -40 c-18 -21 -31 -43 -28 -49 3 -5 1 -6 -5 -2 -5 3 -68 -55
-140 -131 l-130 -136 -7 -115 -8 -115 -176 -85 c-97 -47 -329 -158 -515 -247
l-339 -162 -4 -64 c-6 -87 -13 -88 -13 -2 l0 70 -77 36 c-73 34 -816 392 -908
438 l-43 21 -7 112 -7 111 -143 150 c-79 83 -148 149 -154 148 -6 -2 -10 3 -8
10 1 6 -4 11 -11 9 -8 -1 -11 1 -8 6 2 4 0 14 -5 22 -7 10 -9 -31 -5 -130z
m2766 107 c0 -2 -10 -12 -22 -23 l-23 -19 19 23 c18 21 26 27 26 19z m0 -37
c0 -5 -5 -10 -11 -10 -5 0 -7 5 -4 10 3 6 8 10 11 10 2 0 4 -4 4 -10z m-40
-424 c0 -2 -8 -10 -17 -17 -16 -13 -17 -12 -4 4 13 16 21 21 21 13z m17 -103
c-3 -10 -5 -2 -5 17 0 19 2 27 5 18 2 -10 2 -26 0 -35z"/>
<path d="M2560 4290 c0 -16 17 -20 28 -7 8 10 6 13 -9 14 -10 1 -19 -2 -19 -7z"/>
<path d="M2493 4275 c0 -8 4 -15 9 -15 4 0 8 7 8 15 0 8 -4 15 -8 15 -5 0 -9
-7 -9 -15z"/>
<path d="M2460 4259 c0 -5 5 -7 10 -4 6 3 10 8 10 11 0 2 -4 4 -10 4 -5 0 -10
-5 -10 -11z"/>
<path d="M2195 4220 c6 -10 3 -12 -13 -8 -14 4 -20 2 -15 -5 4 -6 -2 -8 -15
-5 -12 4 -26 0 -33 -8 -6 -7 -21 -13 -33 -12 -56 4 -244 -110 -326 -199 -45
-49 -100 -119 -100 -128 0 -4 -10 -20 -21 -37 -24 -33 -22 -37 39 -64 44 -19
318 -151 457 -220 61 -30 114 -54 119 -54 10 0 4 696 -7 706 -19 20 -212 -54
-304 -117 -26 -18 -81 -64 -122 -103 -44 -42 -65 -58 -52 -39 64 93 237 212
381 260 52 18 90 33 83 33 -6 0 -19 3 -29 7 -13 5 -15 3 -9 -7z"/>
<path d="M2765 4180 c15 -6 16 -9 4 -9 -9 -1 -17 -7 -18 -13 -1 -7 -5 -165 -8
-351 l-5 -337 69 34 c37 19 127 62 198 96 72 35 165 79 207 100 42 21 87 41
100 46 13 4 33 14 45 22 l23 14 -22 42 c-33 60 -90 136 -134 177 -100 94 -231
170 -298 174 -38 2 -39 2 -15 -11 30 -17 42 -18 33 -2 -4 7 -3 8 5 4 6 -4 9
-12 6 -17 -4 -5 -1 -9 6 -9 6 0 49 -25 94 -55 78 -52 181 -150 206 -197 6 -12
-17 9 -52 47 -75 80 -176 158 -196 151 -8 -3 -12 -2 -8 3 9 15 -77 50 -112 46
-21 -3 -35 1 -45 13 -11 15 -11 16 2 6 14 -10 60 -17 60 -9 0 7 -124 45 -144
44 -21 0 -21 -1 -1 -9z m85 -54 c0 -2 -7 -7 -16 -10 -8 -3 -12 -2 -9 4 6 10
25 14 25 6z"/>
<path d="M1470 3739 c0 -5 5 -7 10 -4 6 3 10 8 10 11 0 2 -4 4 -10 4 -5 0 -10
-5 -10 -11z"/>
<path d="M1530 2932 c62 -49 145 -105 120 -80 -43 41 -131 108 -143 108 -7 0
4 -13 23 -28z"/>
<path d="M3460 2940 c0 -5 5 -10 10 -10 6 0 10 5 10 10 0 6 -4 10 -10 10 -5 0
-10 -4 -10 -10z"/>
<path d="M2568 2747 l-57 -31 -5 -80 c-4 -45 -8 -99 -9 -121 -2 -22 -4 14 -5
80 l-2 121 -55 27 c-31 15 -60 27 -66 27 -6 0 -53 -32 -106 -71 -52 -39 -102
-73 -111 -76 -13 -4 -13 -2 2 9 14 11 16 17 7 23 -8 4 -20 0 -31 -11 -16 -18
-17 -41 -10 -357 4 -186 9 -339 11 -341 33 -23 105 -83 107 -88 2 -5 9 -8 15
-8 9 0 11 87 9 345 l-3 345 26 12 c22 10 30 8 63 -19 l37 -30 3 -374 2 -374
47 -47 c26 -27 54 -48 63 -48 9 0 35 21 58 47 l42 46 0 372 0 372 46 33 c40
29 49 31 71 21 l26 -12 -8 -344 c-4 -190 -4 -345 0 -345 9 0 85 54 112 79 25
24 29 80 37 466 l5 240 -76 50 c-42 28 -78 48 -80 45 -1 -3 -9 4 -18 15 -12
16 -14 17 -9 2 3 -9 40 -42 81 -72 42 -30 72 -55 67 -55 -5 0 -52 32 -104 70
-52 38 -102 74 -110 79 -11 7 -32 1 -72 -22z"/>
<path d="M1770 2756 c0 -2 7 -9 15 -16 13 -11 14 -10 9 4 -5 14 -24 23 -24 12z"/>
<path d="M1482 2601 c3 -110 5 -121 27 -145 13 -14 28 -23 33 -20 5 3 6 60 3
127 -6 106 -9 124 -27 140 -11 9 -25 17 -30 17 -6 0 -8 -46 -6 -119z"/>
<path d="M3480 2702 c-21 -17 -23 -29 -28 -145 -3 -78 -1 -127 5 -127 5 0 20
11 33 25 21 23 23 34 25 140 1 64 -1 118 -5 120 -5 3 -18 -3 -30 -13z"/>
<path d="M1864 2691 c20 -22 26 -25 26 -13 0 4 -10 13 -22 21 -23 14 -23 14
-4 -8z"/>
<path d="M2208 2693 c-10 -2 -18 -9 -18 -14 0 -6 -4 -8 -9 -4 -5 3 -12 1 -15
-4 -14 -22 15 -19 41 4 15 13 26 24 23 24 -3 -1 -13 -3 -22 -6z"/>
<path d="M1905 2660 c3 -5 8 -10 11 -10 2 0 4 5 4 10 0 6 -5 10 -11 10 -5 0
-7 -4 -4 -10z"/>
<path d="M1147 2452 c-30 -31 -47 -56 -47 -72 0 -34 -262 -290 -296 -290 -13
0 -47 -22 -81 -52 -38 -34 -46 -39 -23 -14 19 20 34 39 33 42 -2 2 0 4 5 5 17
1 40 32 35 46 -5 12 -13 8 -38 -18 -17 -19 -42 -43 -56 -54 -20 -15 -29 -39
-43 -103 -9 -46 -16 -85 -14 -87 2 -2 30 5 63 16 38 12 62 15 66 8 5 -9 0 -61
-17 -158 -5 -33 -5 -34 24 -28 17 3 54 18 83 32 29 13 54 23 57 21 4 -4 -14
-131 -25 -173 -8 -34 11 -29 83 22 l64 44 16 -30 c8 -17 22 -29 29 -27 8 2
130 117 270 257 185 185 254 259 249 270 -4 9 -9 26 -11 38 -7 30 -32 51 -42
35 -5 -8 -63 44 -170 153 -89 91 -163 165 -165 165 -1 0 -23 -22 -49 -48z"/>
<path d="M3631 2332 c-90 -92 -155 -156 -144 -142 34 43 37 56 7 30 l-29 -25
20 25 c10 14 50 57 88 96 65 67 68 72 51 88 -16 17 -22 13 -106 -70 -82 -83
-102 -114 -78 -129 6 -4 2 -26 -10 -58 -11 -29 -20 -54 -20 -56 0 -2 117 -120
261 -263 271 -270 278 -274 293 -213 4 14 10 25 14 25 4 0 34 -20 67 -45 75
-56 90 -58 81 -7 -14 78 -25 156 -22 159 2 2 32 -10 67 -27 85 -40 99 -39 93
3 -2 17 -8 57 -12 87 -5 31 -7 61 -5 67 4 11 55 3 107 -17 31 -11 30 -13 10
81 -15 67 -21 79 -72 131 -43 44 -58 55 -64 44 -6 -10 8 -30 47 -67 30 -29 53
-55 50 -57 -3 -3 -29 18 -58 46 -35 35 -61 52 -77 52 -36 0 -290 255 -290 291
0 16 -16 40 -48 72 -26 26 -50 47 -52 47 -3 0 -79 -75 -169 -168z"/>
<path d="M1060 2395 c0 -24 5 -35 15 -35 10 0 15 10 15 29 0 16 -6 31 -15 35
-12 4 -15 -3 -15 -29z"/>
<path d="M3923 2423 c-19 -7 -17 -63 2 -63 10 0 15 11 15 35 0 19 -1 35 -2 34
-2 0 -9 -3 -15 -6z"/>
<path d="M1380 2387 c0 -13 15 -38 36 -58 43 -41 104 -117 86 -105 -11 7 -12
4 -3 -13 7 -11 16 -21 22 -21 6 0 7 5 3 12 -4 6 -3 8 4 5 16 -11 42 3 42 22 0
19 -159 181 -178 181 -6 0 -12 -10 -12 -23z"/>
<path d="M1436 1819 c-31 -33 -56 -64 -56 -68 0 -8 5 -12 360 -302 129 -106
298 -244 375 -308 77 -64 147 -122 156 -129 14 -10 27 -4 88 44 40 31 70 61
68 67 -2 7 -48 49 -103 95 -54 45 -114 95 -132 110 -18 15 -38 32 -45 37 -6 6
-75 62 -152 126 -403 332 -475 389 -488 389 -8 0 -40 -27 -71 -61z m185 -76
c13 -16 12 -17 -3 -4 -10 7 -18 15 -18 17 0 8 8 3 21 -13z m90 -70 c13 -16 12
-17 -3 -4 -17 13 -22 21 -14 21 2 0 10 -8 17 -17z m64 -53 c10 -11 16 -20 13
-20 -3 0 -13 9 -23 20 -10 11 -16 20 -13 20 3 0 13 -9 23 -20z m50 -40 c10
-11 16 -20 13 -20 -3 0 -13 9 -23 20 -10 11 -16 20 -13 20 3 0 13 -9 23 -20z
m56 -47 c13 -16 12 -17 -3 -4 -10 7 -18 15 -18 17 0 8 8 3 21 -13z m129 -110
c0 -7 -98 76 -107 90 -4 7 19 -10 50 -37 31 -27 57 -51 57 -53z m35 -23 c10
-11 16 -20 13 -20 -3 0 -13 9 -23 20 -10 11 -16 20 -13 20 3 0 13 -9 23 -20z"/>
<path d="M3330 1759 c-80 -66 -162 -136 -183 -155 -21 -19 -41 -34 -46 -34 -4
0 -18 -12 -32 -26 -13 -15 -80 -70 -149 -124 -69 -54 -134 -106 -145 -116 -11
-11 -52 -44 -90 -75 -39 -31 -83 -68 -100 -83 -16 -15 -34 -30 -40 -34 -5 -4
-42 -34 -81 -67 -39 -33 -112 -93 -162 -134 -51 -41 -92 -79 -92 -85 0 -6 28
-38 61 -72 l62 -62 64 51 c122 98 151 123 363 297 117 96 242 199 279 229 36
30 129 106 205 170 77 64 192 158 255 209 64 51 118 98 120 103 5 15 -110 129
-129 128 -8 0 -80 -54 -160 -120z m-20 -73 c0 -2 -8 -10 -17 -17 -16 -13 -17
-12 -4 4 13 16 21 21 21 13z m-60 -49 c0 -2 -10 -12 -22 -23 l-23 -19 19 23
c18 21 26 27 26 19z m-60 -50 c0 -2 -10 -12 -22 -23 l-23 -19 19 23 c18 21 26
27 26 19z m-50 -40 c0 -2 -12 -14 -27 -28 l-28 -24 24 28 c23 25 31 32 31 24z
m-60 -50 c0 -2 -10 -12 -22 -23 l-23 -19 19 23 c18 21 26 27 26 19z m-60 -50
c0 -2 -10 -12 -22 -23 l-23 -19 19 23 c18 21 26 27 26 19z m-50 -41 c0 -2 -8
-10 -17 -17 -16 -13 -17 -12 -4 4 13 16 21 21 21 13z"/>
<path d="M2630 840 l-65 -60 45 -40 c25 -22 50 -40 56 -40 7 0 40 28 74 62
l62 62 -44 38 c-23 21 -47 37 -53 38 -5 0 -39 -27 -75 -60z"/>
<path d="M2094 816 c-22 -19 -49 -42 -61 -52 -46 -39 -41 -65 28 -139 72 -76
99 -91 134 -72 29 15 115 95 115 106 0 16 -142 161 -151 155 -5 -3 -9 2 -9 10
0 28 -18 26 -56 -8z"/>
<path d="M2844 825 c-4 -8 -12 -15 -20 -15 -8 0 -14 -4 -14 -8 0 -4 -20 -28
-44 -52 -23 -25 -51 -57 -60 -71 l-17 -27 58 -51 c80 -70 93 -68 181 23 68 70
71 75 62 103 -10 28 -107 113 -130 113 -6 0 -13 -7 -16 -15z"/>
</g>
</svg>
